# Blender v2.93.1 OBJ File: 'greengun.blend'
# www.blender.org
mtllib greengun_main.mtl
o Cylinder.001
v 0.000000 0.063766 -4.031734
v 0.000000 -0.188477 1.161335
v 0.459301 -0.126483 -4.031734
v 0.280938 -0.304846 1.161335
v 0.649549 -0.585784 -4.031734
v 0.397307 -0.585784 1.161335
v 0.459301 -1.045085 -4.031734
v 0.280938 -0.866722 1.161335
v -0.000000 -1.235333 -4.031734
v -0.000000 -0.983091 1.161335
v -0.459301 -1.045085 -4.031734
v -0.280938 -0.866722 1.161335
v -0.649549 -0.585784 -4.031734
v -0.397307 -0.585784 1.161335
v -0.459301 -0.126483 -4.031734
v -0.280938 -0.304846 1.161335
v 0.000000 -0.188477 -1.435199
v 0.280938 -0.304846 -1.435199
v 0.397307 -0.585784 -1.435199
v 0.280938 -0.866722 -1.435199
v -0.000000 -0.983091 -1.435199
v -0.280938 -0.866722 -1.435199
v -0.397307 -0.585784 -1.435199
v -0.280938 -0.304846 -1.435199
v 0.000000 0.209908 -0.136932
v 0.562639 -0.023145 -0.136932
v 0.795691 -0.585784 -0.136932
v 0.562639 -1.148423 -0.136932
v -0.000000 -1.381475 -0.136932
v -0.562639 -1.148423 -0.136932
v -0.795691 -0.585784 -0.136932
v -0.562639 -0.023145 -0.136932
vt 1.000000 1.000000
vt 0.875000 0.875000
vt 1.000000 0.875000
vt 0.875000 1.000000
vt 0.750000 0.875000
vt 0.750000 1.000000
vt 0.625000 0.875000
vt 0.625000 1.000000
vt 0.500000 0.875000
vt 0.500000 1.000000
vt 0.375000 0.875000
vt 0.375000 1.000000
vt 0.250000 0.875000
vt 0.490000 0.250000
vt 0.250000 0.490000
vt 0.010000 0.250000
vt 0.250000 1.000000
vt 0.125000 0.875000
vt 0.125000 1.000000
vt 0.000000 0.875000
vt 0.919706 0.080294
vt 0.580294 0.080294
vt 0.580294 0.419706
vt 0.125000 0.750000
vt 0.000000 0.500000
vt 0.125000 0.500000
vt 0.250000 0.750000
vt 0.250000 0.500000
vt 0.375000 0.500000
vt 0.500000 0.750000
vt 0.500000 0.500000
vt 0.625000 0.500000
vt 0.750000 0.750000
vt 0.750000 0.500000
vt 0.875000 0.750000
vt 0.875000 0.500000
vt 1.000000 0.750000
vt 1.000000 0.500000
vt 0.000000 0.750000
vt 0.375000 0.750000
vt 0.625000 0.750000
vt 0.419706 0.419706
vt 0.080294 0.419706
vt 0.080294 0.080294
vt 0.250000 0.010000
vt 0.419706 0.080294
vt 0.000000 1.000000
vt 0.750000 0.490000
vt 0.919706 0.419706
vt 0.990000 0.250000
vt 0.750000 0.010000
vt 0.510000 0.250000
vn 0.3682 0.8889 0.2728
vn 0.8889 0.3682 0.2728
vn 0.8889 -0.3682 0.2728
vn 0.3682 -0.8889 0.2728
vn -0.3682 -0.8889 0.2728
vn -0.8889 -0.3682 0.2728
vn 0.0000 0.0000 1.0000
vn -0.8889 0.3682 0.2728
vn -0.3682 0.8889 0.2728
vn 0.0000 0.0000 -1.0000
vn -0.3812 0.9202 0.0894
vn -0.9202 0.3812 0.0894
vn -0.9202 -0.3812 0.0894
vn -0.3812 -0.9202 0.0894
vn 0.3812 -0.9202 0.0894
vn 0.9202 -0.3812 0.0894
vn 0.9202 0.3812 0.0894
vn 0.3812 0.9202 0.0894
vn -0.3682 0.8889 -0.2728
vn -0.8889 0.3682 -0.2728
vn -0.8888 -0.3682 -0.2728
vn -0.3682 -0.8889 -0.2728
vn 0.3682 -0.8889 -0.2728
vn 0.8889 -0.3682 -0.2728
vn 0.8889 0.3682 -0.2728
vn 0.3682 0.8889 -0.2728
vn -0.8889 -0.3682 -0.2728
usemtl None
s off
f 2/1/1 26/2/1 25/3/1
f 4/4/2 27/5/2 26/2/2
f 6/6/3 28/7/3 27/5/3
f 8/8/4 29/9/4 28/7/4
f 10/10/5 30/11/5 29/9/5
f 12/12/6 31/13/6 30/11/6
f 6/14/7 2/15/7 14/16/7
f 14/17/8 32/18/8 31/13/8
f 16/19/9 25/20/9 32/18/9
f 7/21/10 11/22/10 15/23/10
f 24/24/11 1/25/11 15/26/11
f 23/27/12 15/26/12 13/28/12
f 11/29/13 23/27/13 13/28/13
f 21/30/14 11/29/14 9/31/14
f 7/32/15 21/30/15 9/31/15
f 19/33/16 7/32/16 5/34/16
f 18/35/17 5/34/17 3/36/17
f 17/37/18 3/36/18 1/38/18
f 32/18/19 17/39/19 24/24/19
f 31/13/20 24/24/20 23/27/20
f 30/11/21 23/27/21 22/40/21
f 29/9/22 22/40/22 21/30/22
f 28/7/23 21/30/23 20/41/23
f 27/5/24 20/41/24 19/33/24
f 26/2/25 19/33/25 18/35/25
f 25/3/26 18/35/26 17/37/26
f 2/1/1 4/4/1 26/2/1
f 4/4/2 6/6/2 27/5/2
f 6/6/3 8/8/3 28/7/3
f 8/8/4 10/10/4 29/9/4
f 10/10/5 12/12/5 30/11/5
f 12/12/6 14/17/6 31/13/6
f 6/14/7 4/42/7 2/15/7
f 2/15/7 16/43/7 14/16/7
f 14/16/7 12/44/7 10/45/7
f 10/45/7 8/46/7 14/16/7
f 8/46/7 6/14/7 14/16/7
f 14/17/8 16/19/8 32/18/8
f 16/19/9 2/47/9 25/20/9
f 15/23/10 1/48/10 7/21/10
f 1/48/10 3/49/10 7/21/10
f 3/49/10 5/50/10 7/21/10
f 7/21/10 9/51/10 11/22/10
f 11/22/10 13/52/10 15/23/10
f 24/24/11 17/39/11 1/25/11
f 23/27/12 24/24/12 15/26/12
f 11/29/13 22/40/13 23/27/13
f 21/30/14 22/40/14 11/29/14
f 7/32/15 20/41/15 21/30/15
f 19/33/16 20/41/16 7/32/16
f 18/35/17 19/33/17 5/34/17
f 17/37/18 18/35/18 3/36/18
f 32/18/19 25/20/19 17/39/19
f 31/13/20 32/18/20 24/24/20
f 30/11/27 31/13/27 23/27/27
f 29/9/22 30/11/22 22/40/22
f 28/7/23 29/9/23 21/30/23
f 27/5/24 28/7/24 20/41/24
f 26/2/25 27/5/25 19/33/25
f 25/3/26 26/2/26 18/35/26
o Cylinder.002
v 0.000000 -1.260133 -4.038263
v 0.000000 -2.354737 -5.918455
v 0.469638 -1.065603 -4.038341
v 0.131427 -2.316243 -5.956949
v 0.664168 -0.595965 -4.038527
v 0.185866 -2.223310 -6.049883
v 0.469638 -0.126327 -4.038714
v 0.131427 -2.130376 -6.142816
v -0.000000 0.068203 -4.038792
v -0.000000 -2.091882 -6.181310
v -0.469638 -0.126327 -4.038714
v -0.131427 -2.130376 -6.142816
v -0.664168 -0.595965 -4.038527
v -0.185866 -2.223310 -6.049883
v -0.469638 -1.065603 -4.038341
v -0.131427 -2.316243 -5.956949
v 0.000000 -1.495814 -5.059533
v 0.131427 -1.457320 -5.098027
v 0.185866 -1.364387 -5.190960
v 0.131427 -1.271454 -5.283893
v -0.000000 -1.232959 -5.322387
v -0.131427 -1.271454 -5.283893
v -0.185866 -1.364387 -5.190960
v -0.131427 -1.457320 -5.098027
v 0.000000 -2.057060 -5.357210
v 0.263211 -1.979967 -5.434303
v 0.372237 -1.793848 -5.620421
v 0.263211 -1.607730 -5.806540
v -0.000000 -1.530637 -5.883633
v -0.263211 -1.607730 -5.806540
v -0.372237 -1.793848 -5.620421
v -0.263211 -1.979967 -5.434303
vt 1.000000 1.000000
vt 0.875000 0.875000
vt 1.000000 0.875000
vt 0.875000 1.000000
vt 0.750000 0.875000
vt 0.750000 1.000000
vt 0.625000 0.875000
vt 0.625000 1.000000
vt 0.500000 0.875000
vt 0.500000 1.000000
vt 0.375000 0.875000
vt 0.375000 1.000000
vt 0.250000 0.875000
vt 0.490000 0.250000
vt 0.250000 0.490000
vt 0.010000 0.250000
vt 0.250000 1.000000
vt 0.125000 0.875000
vt 0.125000 1.000000
vt 0.000000 0.875000
vt 0.580294 0.080294
vt 0.510000 0.250000
vt 0.580294 0.419706
vt 0.125000 0.500000
vt 0.000000 0.750000
vt 0.000000 0.500000
vt 0.250000 0.500000
vt 0.125000 0.750000
vt 0.375000 0.500000
vt 0.250000 0.750000
vt 0.500000 0.500000
vt 0.375000 0.750000
vt 0.625000 0.750000
vt 0.625000 0.500000
vt 0.750000 0.750000
vt 0.750000 0.500000
vt 0.875000 0.750000
vt 0.875000 0.500000
vt 1.000000 0.750000
vt 1.000000 0.500000
vt 0.500000 0.750000
vt 0.419706 0.419706
vt 0.080294 0.419706
vt 0.080294 0.080294
vt 0.250000 0.010000
vt 0.419706 0.080294
vt 0.000000 1.000000
vt 0.750000 0.490000
vt 0.750000 0.010000
vt 0.919706 0.419706
vt 0.919706 0.080294
vt 0.990000 0.250000
vn 0.3682 -0.8214 0.4356
vn 0.8889 -0.4532 0.0675
vn 0.8888 0.0675 -0.4532
vn 0.3682 0.4356 -0.8214
vn -0.3682 0.4356 -0.8214
vn -0.8889 0.0675 -0.4532
vn 0.0000 -0.7071 -0.7071
vn -0.8889 -0.4532 0.0675
vn -0.3682 -0.8214 0.4356
vn 0.0000 0.0004 1.0000
vn -0.3743 -0.9036 0.2085
vn -0.9132 -0.3783 -0.1516
vn -0.7788 0.3224 -0.5382
vn -0.2770 0.6686 -0.6901
vn 0.2770 0.6686 -0.6901
vn 0.7788 0.3224 -0.5382
vn 0.9132 -0.3783 -0.1516
vn 0.3743 -0.9036 0.2085
vn -0.3682 -0.4356 0.8214
vn -0.8889 -0.0675 0.4532
vn -0.8889 0.4532 -0.0675
vn -0.3682 0.8214 -0.4356
vn 0.3682 0.8214 -0.4356
vn 0.8888 0.4532 -0.0675
vn 0.8889 -0.0675 0.4532
vn 0.3682 -0.4356 0.8214
vn 0.8888 -0.4532 0.0675
vn 0.8889 0.0675 -0.4532
vn -0.3351 -0.9135 0.2307
vn -0.8573 -0.5147 -0.0126
vn -0.9110 0.1491 -0.3846
vn -0.3827 0.6488 -0.6577
vn 0.3827 0.6488 -0.6577
vn 0.9110 0.1491 -0.3846
vn 0.8573 -0.5147 -0.0126
vn 0.3351 -0.9135 0.2307
vn -0.8888 0.4532 -0.0675
vn 0.8889 0.4532 -0.0675
vn 0.8888 -0.0675 0.4532
usemtl None
s off
f 34/53/28 58/54/28 57/55/28
f 36/56/29 59/57/29 58/54/29
f 38/58/30 60/59/30 59/57/30
f 40/60/31 61/61/31 60/59/31
f 42/62/32 62/63/32 61/61/32
f 44/64/33 63/65/33 62/63/33
f 38/66/34 34/67/34 46/68/34
f 46/69/35 64/70/35 63/65/35
f 48/71/36 57/72/36 64/70/36
f 43/73/37 45/74/37 47/75/37
f 47/76/38 49/77/38 33/78/38
f 45/79/39 56/80/39 47/76/39
f 43/81/40 55/82/40 45/79/40
f 41/83/41 54/84/41 43/81/41
f 52/85/42 41/83/42 39/86/42
f 51/87/43 39/86/43 37/88/43
f 50/89/44 37/88/44 35/90/44
f 49/91/45 35/90/45 33/92/45
f 64/70/46 49/77/46 56/80/46
f 63/65/47 56/80/47 55/82/47
f 62/63/48 55/82/48 54/84/48
f 61/61/49 54/84/49 53/93/49
f 60/59/50 53/93/50 52/85/50
f 59/57/51 52/85/51 51/87/51
f 58/54/52 51/87/52 50/89/52
f 57/55/53 50/89/53 49/91/53
f 34/53/28 36/56/28 58/54/28
f 36/56/54 38/58/54 59/57/54
f 38/58/55 40/60/55 60/59/55
f 40/60/31 42/62/31 61/61/31
f 42/62/32 44/64/32 62/63/32
f 44/64/33 46/69/33 63/65/33
f 38/66/34 36/94/34 34/67/34
f 34/67/34 48/95/34 46/68/34
f 46/68/34 44/96/34 42/97/34
f 42/97/34 40/98/34 46/68/34
f 40/98/34 38/66/34 46/68/34
f 46/69/35 48/71/35 64/70/35
f 48/71/36 34/99/36 57/72/36
f 47/75/37 33/100/37 41/101/37
f 33/100/37 35/102/37 39/103/37
f 35/102/37 37/104/37 39/103/37
f 39/103/37 41/101/37 33/100/37
f 41/101/37 43/73/37 47/75/37
f 47/76/56 56/80/56 49/77/56
f 45/79/57 55/82/57 56/80/57
f 43/81/58 54/84/58 55/82/58
f 41/83/59 53/93/59 54/84/59
f 52/85/60 53/93/60 41/83/60
f 51/87/61 52/85/61 39/86/61
f 50/89/62 51/87/62 37/88/62
f 49/91/63 50/89/63 35/90/63
f 64/70/46 57/72/46 49/77/46
f 63/65/47 64/70/47 56/80/47
f 62/63/64 63/65/64 55/82/64
f 61/61/49 62/63/49 54/84/49
f 60/59/50 61/61/50 53/93/50
f 59/57/65 60/59/65 52/85/65
f 58/54/66 59/57/66 51/87/66
f 57/55/53 58/54/53 50/89/53
