# Blender v2.93.1 OBJ File: 'greengun.blend'
# www.blender.org
mtllib greengun_paint.mtl
o Cylinder.003
v 1.053054 -2.182966 -0.543243
v 0.436219 -1.114576 -0.543243
v 1.308888 -2.035259 -0.424360
v 0.692053 -0.966870 -0.424360
v 1.414858 -1.974078 -0.137353
v 0.798023 -0.905689 -0.137353
v 1.308888 -2.035259 0.149655
v 0.692053 -0.966870 0.149655
v 1.053054 -2.182966 0.268537
v 0.436219 -1.114576 0.268537
v 0.797220 -2.330672 0.149655
v 0.180385 -1.262282 0.149655
v 0.691250 -2.391853 -0.137353
v 0.074415 -1.323464 -0.137353
v 0.797220 -2.330672 -0.424360
v 0.180385 -1.262282 -0.424360
vt 1.000000 1.000000
vt 0.875000 0.500000
vt 1.000000 0.500000
vt 0.875000 1.000000
vt 0.750000 0.500000
vt 0.750000 1.000000
vt 0.625000 0.500000
vt 0.625000 1.000000
vt 0.500000 0.500000
vt 0.500000 1.000000
vt 0.375000 0.500000
vt 0.375000 1.000000
vt 0.250000 0.500000
vt 0.490000 0.250000
vt 0.250000 0.490000
vt 0.010000 0.250000
vt 0.250000 1.000000
vt 0.125000 0.500000
vt 0.125000 1.000000
vt 0.000000 0.500000
vt 0.919706 0.080294
vt 0.580294 0.080294
vt 0.580294 0.419706
vt 0.419706 0.419706
vt 0.080294 0.419706
vt 0.080294 0.080294
vt 0.250000 0.010000
vt 0.419706 0.080294
vt 0.000000 1.000000
vt 0.750000 0.490000
vt 0.919706 0.419706
vt 0.990000 0.250000
vt 0.750000 0.010000
vt 0.510000 0.250000
vn 0.3233 0.1867 -0.9277
vn 0.7966 0.4599 -0.3922
vn 0.7966 0.4599 0.3922
vn 0.3233 0.1867 0.9277
vn -0.3233 -0.1867 0.9277
vn -0.7966 -0.4599 0.3922
vn -0.5000 0.8660 0.0000
vn -0.7966 -0.4599 -0.3922
vn -0.3233 -0.1867 -0.9277
vn 0.5000 -0.8660 -0.0000
usemtl None
s off
f 2/1/1 3/2/1 1/3/1
f 4/4/2 5/5/2 3/2/2
f 6/6/3 7/7/3 5/5/3
f 8/8/4 9/9/4 7/7/4
f 10/10/5 11/11/5 9/9/5
f 12/12/6 13/13/6 11/11/6
f 6/14/7 2/15/7 14/16/7
f 14/17/8 15/18/8 13/13/8
f 16/19/9 1/20/9 15/18/9
f 7/21/10 11/22/10 15/23/10
f 2/1/1 4/4/1 3/2/1
f 4/4/2 6/6/2 5/5/2
f 6/6/3 8/8/3 7/7/3
f 8/8/4 10/10/4 9/9/4
f 10/10/5 12/12/5 11/11/5
f 12/12/6 14/17/6 13/13/6
f 6/14/7 4/24/7 2/15/7
f 2/15/7 16/25/7 14/16/7
f 14/16/7 12/26/7 10/27/7
f 10/27/7 8/28/7 14/16/7
f 8/28/7 6/14/7 14/16/7
f 14/17/8 16/19/8 15/18/8
f 16/19/9 2/29/9 1/20/9
f 15/23/10 1/30/10 3/31/10
f 3/31/10 5/32/10 7/21/10
f 7/21/10 9/33/10 11/22/10
f 11/22/10 13/34/10 15/23/10
f 15/23/10 3/31/10 7/21/10
o Cylinder.004
v -1.098105 -2.182966 -0.543243
v -0.481270 -1.114576 -0.543243
v -0.842271 -2.330672 -0.424360
v -0.225436 -1.262282 -0.424360
v -0.736301 -2.391853 -0.137353
v -0.119466 -1.323464 -0.137353
v -0.842271 -2.330672 0.149655
v -0.225436 -1.262282 0.149655
v -1.098105 -2.182966 0.268537
v -0.481270 -1.114576 0.268537
v -1.353939 -2.035259 0.149655
v -0.737104 -0.966870 0.149655
v -1.459909 -1.974078 -0.137353
v -0.843074 -0.905689 -0.137353
v -1.353939 -2.035259 -0.424360
v -0.737104 -0.966870 -0.424360
vt 1.000000 1.000000
vt 0.875000 0.500000
vt 1.000000 0.500000
vt 0.875000 1.000000
vt 0.750000 0.500000
vt 0.750000 1.000000
vt 0.625000 0.500000
vt 0.625000 1.000000
vt 0.500000 0.500000
vt 0.500000 1.000000
vt 0.375000 0.500000
vt 0.375000 1.000000
vt 0.250000 0.500000
vt 0.490000 0.250000
vt 0.250000 0.490000
vt 0.010000 0.250000
vt 0.250000 1.000000
vt 0.125000 0.500000
vt 0.125000 1.000000
vt 0.000000 0.500000
vt 0.919706 0.080294
vt 0.580294 0.080294
vt 0.580294 0.419706
vt 0.419706 0.419706
vt 0.080294 0.419706
vt 0.080294 0.080294
vt 0.250000 0.010000
vt 0.419706 0.080294
vt 0.000000 1.000000
vt 0.750000 0.490000
vt 0.919706 0.419706
vt 0.990000 0.250000
vt 0.750000 0.010000
vt 0.510000 0.250000
vn 0.3233 -0.1867 -0.9277
vn 0.7966 -0.4599 -0.3922
vn 0.7966 -0.4599 0.3922
vn 0.3233 -0.1867 0.9277
vn -0.3233 0.1867 0.9277
vn -0.7966 0.4599 0.3922
vn 0.5000 0.8660 0.0000
vn -0.7966 0.4599 -0.3922
vn -0.3233 0.1867 -0.9277
vn -0.5000 -0.8660 0.0000
usemtl None
s off
f 18/35/11 19/36/11 17/37/11
f 20/38/12 21/39/12 19/36/12
f 22/40/13 23/41/13 21/39/13
f 24/42/14 25/43/14 23/41/14
f 26/44/15 27/45/15 25/43/15
f 28/46/16 29/47/16 27/45/16
f 22/48/17 18/49/17 30/50/17
f 30/51/18 31/52/18 29/47/18
f 32/53/19 17/54/19 31/52/19
f 23/55/20 27/56/20 31/57/20
f 18/35/11 20/38/11 19/36/11
f 20/38/12 22/40/12 21/39/12
f 22/40/13 24/42/13 23/41/13
f 24/42/14 26/44/14 25/43/14
f 26/44/15 28/46/15 27/45/15
f 28/46/16 30/51/16 29/47/16
f 22/48/17 20/58/17 18/49/17
f 18/49/17 32/59/17 30/50/17
f 30/50/17 28/60/17 26/61/17
f 26/61/17 24/62/17 30/50/17
f 24/62/17 22/48/17 30/50/17
f 30/51/18 32/53/18 31/52/18
f 32/53/19 18/63/19 17/54/19
f 31/57/20 17/64/20 19/65/20
f 19/65/20 21/66/20 23/55/20
f 23/55/20 25/67/20 27/56/20
f 27/56/20 29/68/20 31/57/20
f 31/57/20 19/65/20 23/55/20
