# Blender v2.93.1 OBJ File: 'greengun.blend'
# www.blender.org
mtllib greengun_barrel.mtl
o Cylinder
v -0.000000 0.354616 -3.711055
v 0.000000 0.725072 3.930217
v 0.250751 0.250751 -3.711055
v 0.512703 0.512703 3.930217
v 0.354615 0.000000 -3.711055
v 0.725072 -0.000000 3.930217
v 0.250751 -0.250751 -3.711055
v 0.512703 -0.512703 3.930217
v -0.000000 -0.354615 -3.711055
v -0.000000 -0.725072 3.930217
v -0.250751 -0.250751 -3.711055
v -0.512703 -0.512703 3.930217
v -0.354615 0.000000 -3.711055
v -0.725072 -0.000000 3.930217
v -0.250751 0.250751 -3.711055
v -0.512703 0.512703 3.930217
v 0.000000 0.702528 1.643853
v 0.496762 0.496762 1.643853
v 0.702528 -0.000000 1.643853
v 0.496762 -0.496762 1.643853
v -0.000000 -0.702528 1.643853
v -0.496762 -0.496762 1.643853
v -0.702528 -0.000000 1.643853
v -0.496762 0.496762 1.643853
v 0.401526 0.401526 1.167985
v 0.567844 -0.000000 1.167985
v 0.401526 -0.401527 1.167985
v -0.000000 -0.567844 1.167985
v -0.401526 -0.401527 1.167985
v -0.567844 -0.000000 1.167985
v -0.401527 0.401526 1.167985
v 0.000000 0.567844 1.167985
v 0.000000 0.898000 2.787035
v 0.634982 0.634982 2.787035
v 0.898000 -0.000000 2.787035
v 0.634982 -0.634982 2.787035
v -0.000000 -0.898000 2.787035
v -0.634982 -0.634982 2.787035
v -0.898000 -0.000000 2.787035
v -0.634982 0.634982 2.787035
v 0.519671 0.519671 -1.271535
v 0.734926 0.000000 -1.271535
v 0.519671 -0.519671 -1.271535
v -0.000000 -0.734926 -1.271535
v -0.519671 -0.519671 -1.271535
v -0.734926 0.000000 -1.271535
v -0.519671 0.519671 -1.271535
v 0.000000 0.734926 -1.271535
vt 1.000000 1.000000
vt 0.875000 0.937752
vt 1.000000 0.937752
vt 0.750000 1.000000
vt 0.750000 0.937752
vt 0.625000 0.937752
vt 0.625000 1.000000
vt 0.500000 0.937752
vt 0.500000 1.000000
vt 0.375000 0.937752
vt 0.375000 1.000000
vt 0.250000 0.937752
vt 0.490000 0.250000
vt 0.250000 0.490000
vt 0.010000 0.250000
vt 0.250000 1.000000
vt 0.125000 0.937752
vt 0.125000 1.000000
vt 0.000000 0.937752
vt 0.919706 0.419706
vt 0.919706 0.080294
vt 0.580294 0.080294
vt 0.125000 0.875504
vt 0.000000 0.828683
vt 0.125000 0.828683
vt 0.250000 0.875504
vt 0.250000 0.828683
vt 0.375000 0.875504
vt 0.375000 0.828683
vt 0.500000 0.875504
vt 0.500000 0.828683
vt 0.625000 0.875504
vt 0.625000 0.828683
vt 0.750000 0.828683
vt 0.875000 0.875504
vt 0.875000 0.828683
vt 1.000000 0.875504
vt 1.000000 0.828683
vt 1.000000 0.664341
vt 0.875000 0.664341
vt 0.750000 0.664341
vt 0.625000 0.664341
vt 0.500000 0.664341
vt 0.375000 0.664341
vt 0.250000 0.664341
vt 0.125000 0.664341
vt 0.000000 0.664341
vt 0.000000 0.875504
vt 0.750000 0.875505
vt 0.000000 0.500000
vt 0.125000 0.500000
vt 0.250000 0.500000
vt 0.375000 0.500000
vt 0.500000 0.500000
vt 0.625000 0.500000
vt 0.750000 0.500000
vt 0.875000 0.500000
vt 1.000000 0.500000
vt 0.875000 1.000000
vt 0.419706 0.419706
vt 0.080294 0.419706
vt 0.080294 0.080294
vt 0.250000 0.010000
vt 0.419706 0.080294
vt 0.000000 1.000000
vt 0.580294 0.419706
vt 0.750000 0.490000
vt 0.990000 0.250000
vt 0.750000 0.010000
vt 0.510000 0.250000
vn 0.3790 0.9150 0.1384
vn 0.9150 0.3790 0.1384
vn 0.9150 -0.3790 0.1384
vn 0.3790 -0.9150 0.1384
vn -0.3790 -0.9150 0.1384
vn -0.9150 -0.3790 0.1384
vn 0.0000 0.0000 1.0000
vn -0.9150 0.3790 0.1384
vn -0.3790 0.9150 0.1384
vn 0.0000 0.0000 -1.0000
vn -0.3702 0.8938 -0.2530
vn -0.8938 0.3702 -0.2530
vn -0.8938 -0.3702 -0.2530
vn -0.3702 -0.8938 -0.2530
vn 0.3702 -0.8938 -0.2530
vn 0.8938 -0.3702 -0.2530
vn 0.8938 0.3702 -0.2530
vn 0.3702 0.8938 -0.2530
vn 0.3819 0.9220 0.0631
vn 0.9220 0.3819 0.0631
vn 0.9220 -0.3819 0.0631
vn 0.3819 -0.9220 0.0631
vn -0.3819 -0.9220 0.0631
vn -0.9220 -0.3819 0.0631
vn -0.9220 0.3819 0.0631
vn -0.3819 0.9220 0.0631
vn -0.3780 0.9126 -0.1560
vn -0.9126 0.3780 -0.1560
vn -0.9126 -0.3780 -0.1560
vn -0.3780 -0.9126 -0.1560
vn 0.3780 -0.9126 -0.1560
vn 0.9126 -0.3780 -0.1560
vn 0.9126 0.3780 -0.1560
vn 0.3780 0.9126 -0.1560
vn -0.3788 0.9144 -0.1426
vn -0.9144 0.3788 -0.1426
vn -0.9144 -0.3788 -0.1426
vn -0.3788 -0.9144 -0.1426
vn 0.3788 -0.9144 -0.1426
vn 0.9144 -0.3788 -0.1426
vn 0.9144 0.3788 -0.1426
vn 0.3788 0.9144 -0.1426
usemtl None
s off
f 2/1/1 34/2/1 33/3/1
f 34/2/2 6/4/2 35/5/2
f 6/4/3 36/6/3 35/5/3
f 8/7/4 37/8/4 36/6/4
f 10/9/5 38/10/5 37/8/5
f 12/11/6 39/12/6 38/10/6
f 6/13/7 2/14/7 14/15/7
f 14/16/8 40/17/8 39/12/8
f 16/18/9 33/19/9 40/17/9
f 3/20/10 7/21/10 11/22/10
f 24/23/11 32/24/11 31/25/11
f 23/26/12 31/25/12 30/27/12
f 22/28/13 30/27/13 29/29/13
f 21/30/14 29/29/14 28/31/14
f 20/32/15 28/31/15 27/33/15
f 26/34/16 20/32/16 27/33/16
f 18/35/17 26/34/17 25/36/17
f 17/37/18 25/36/18 32/38/18
f 48/39/19 25/36/19 41/40/19
f 25/36/20 42/41/20 41/40/20
f 42/41/21 27/33/21 43/42/21
f 27/33/22 44/43/22 43/42/22
f 44/43/23 29/29/23 45/44/23
f 29/29/24 46/45/24 45/44/24
f 46/45/25 31/25/25 47/46/25
f 31/25/26 48/47/26 47/46/26
f 40/17/27 17/48/27 24/23/27
f 39/12/28 24/23/28 23/26/28
f 38/10/29 23/26/29 22/28/29
f 21/30/30 38/10/30 22/28/30
f 20/32/31 37/8/31 21/30/31
f 35/5/32 20/32/32 19/49/32
f 34/2/33 19/49/33 18/35/33
f 17/37/34 34/2/34 18/35/34
f 47/46/35 1/50/35 15/51/35
f 46/45/36 15/51/36 13/52/36
f 45/44/37 13/52/37 11/53/37
f 44/43/38 11/53/38 9/54/38
f 7/55/39 44/43/39 9/54/39
f 42/41/40 7/55/40 5/56/40
f 41/40/41 5/56/41 3/57/41
f 1/58/42 41/40/42 3/57/42
f 2/1/1 4/59/1 34/2/1
f 34/2/2 4/59/2 6/4/2
f 6/4/3 8/7/3 36/6/3
f 8/7/4 10/9/4 37/8/4
f 10/9/5 12/11/5 38/10/5
f 12/11/6 14/16/6 39/12/6
f 6/13/7 4/60/7 2/14/7
f 2/14/7 16/61/7 14/15/7
f 14/15/7 12/62/7 6/13/7
f 12/62/7 10/63/7 6/13/7
f 10/63/7 8/64/7 6/13/7
f 14/16/8 16/18/8 40/17/8
f 16/18/9 2/65/9 33/19/9
f 15/66/10 1/67/10 3/20/10
f 3/20/10 5/68/10 7/21/10
f 7/21/10 9/69/10 11/22/10
f 11/22/10 13/70/10 15/66/10
f 15/66/10 3/20/10 11/22/10
f 24/23/11 17/48/11 32/24/11
f 23/26/12 24/23/12 31/25/12
f 22/28/13 23/26/13 30/27/13
f 21/30/14 22/28/14 29/29/14
f 20/32/15 21/30/15 28/31/15
f 26/34/16 19/49/16 20/32/16
f 18/35/17 19/49/17 26/34/17
f 17/37/18 18/35/18 25/36/18
f 48/39/19 32/38/19 25/36/19
f 25/36/20 26/34/20 42/41/20
f 42/41/21 26/34/21 27/33/21
f 27/33/22 28/31/22 44/43/22
f 44/43/23 28/31/23 29/29/23
f 29/29/24 30/27/24 46/45/24
f 46/45/25 30/27/25 31/25/25
f 31/25/26 32/24/26 48/47/26
f 40/17/27 33/19/27 17/48/27
f 39/12/28 40/17/28 24/23/28
f 38/10/29 39/12/29 23/26/29
f 21/30/30 37/8/30 38/10/30
f 20/32/31 36/6/31 37/8/31
f 35/5/32 36/6/32 20/32/32
f 34/2/33 35/5/33 19/49/33
f 17/37/34 33/3/34 34/2/34
f 47/46/35 48/47/35 1/50/35
f 46/45/36 47/46/36 15/51/36
f 45/44/37 46/45/37 13/52/37
f 44/43/38 45/44/38 11/53/38
f 7/55/39 43/42/39 44/43/39
f 42/41/40 43/42/40 7/55/40
f 41/40/41 42/41/41 5/56/41
f 1/58/42 48/39/42 41/40/42
